<svg width="16" height="16" viewBox="0 0 16 16" fill="none" xmlns="http://www.w3.org/2000/svg">
<path fill-rule="evenodd" clip-rule="evenodd" d="M1.33325 7.99967C1.33325 4.31778 4.31802 1.33301 7.99992 1.33301C11.6818 1.33301 14.6666 4.31778 14.6666 7.99967C14.6666 11.6816 11.6818 14.6663 7.99992 14.6663C4.31802 14.6663 1.33325 11.6816 1.33325 7.99967ZM7.31575 5.66496C6.95633 5.66496 6.66496 5.95633 6.66496 6.31575C6.66496 6.68302 6.36723 6.98075 5.99996 6.98075C5.63269 6.98075 5.33496 6.68302 5.33496 6.31575C5.33496 5.22179 6.22179 4.33496 7.31575 4.33496H8.42101C9.66031 4.33496 10.665 5.33961 10.665 6.57891V7.15786C10.665 8.07741 9.91951 8.82286 8.99996 8.82286C8.81495 8.82286 8.66496 8.97284 8.66496 9.15786V9.49996C8.66496 9.86723 8.36723 10.165 7.99996 10.165C7.63269 10.165 7.33496 9.86723 7.33496 9.49996V9.15786C7.33496 8.2383 8.08041 7.49286 8.99996 7.49286C9.18498 7.49286 9.33496 7.34287 9.33496 7.15786V6.57891C9.33496 6.07415 8.92577 5.66496 8.42101 5.66496H7.31575ZM8.66496 11.5C8.66496 11.1327 8.36723 10.835 7.99996 10.835C7.63269 10.835 7.33496 11.1327 7.33496 11.5V11.51C7.33496 11.8772 7.63269 12.175 7.99996 12.175C8.36723 12.175 8.66496 11.8772 8.66496 11.51V11.5Z" fill="white"/>
</svg>
