<svg width="18" height="18" viewBox="0 0 18 18" fill="none" xmlns="http://www.w3.org/2000/svg">
<path fill-rule="evenodd" clip-rule="evenodd" d="M18 14.1762V0.6C18 0.44087 17.9368 0.288258 17.8243 0.175736C17.7117 0.0632141 17.5591 0 17.4 0H0.6C0.44087 0 0.288258 0.0632141 0.175736 0.175736C0.0632141 0.288258 0 0.44087 0 0.6V12.184L6.70456 9.31064C6.89843 9.22755 7.11833 9.22994 7.31035 9.31722L18 14.1762ZM18 15.7502C17.8961 15.7502 17.7904 15.7286 17.6896 15.6828L6.99109 10.8198L0.295439 13.6894C0.198991 13.7307 0.0986797 13.7502 0 13.7502V17.4C0 17.5591 0.0632141 17.7117 0.175736 17.8243C0.288258 17.9368 0.44087 18 0.6 18H17.4C17.5591 18 17.7117 17.9368 17.8243 17.8243C17.9368 17.7117 18 17.5591 18 17.4V15.7502ZM12.1161 4.11612C12.3505 3.8817 12.6685 3.75 13 3.75C13.3315 3.75 13.6495 3.8817 13.8839 4.11612C14.1183 4.35054 14.25 4.66848 14.25 5C14.25 5.33152 14.1183 5.64946 13.8839 5.88388C13.6495 6.1183 13.3315 6.25 13 6.25C12.6685 6.25 12.3505 6.1183 12.1161 5.88388C11.8817 5.64946 11.75 5.33152 11.75 5C11.75 4.66848 11.8817 4.35054 12.1161 4.11612ZM13 2.25C12.2707 2.25 11.5712 2.53973 11.0555 3.05546C10.5397 3.57118 10.25 4.27065 10.25 5C10.25 5.72935 10.5397 6.42882 11.0555 6.94454C11.5712 7.46027 12.2707 7.75 13 7.75C13.7293 7.75 14.4288 7.46027 14.9445 6.94454C15.4603 6.42882 15.75 5.72935 15.75 5C15.75 4.27065 15.4603 3.57118 14.9445 3.05546C14.4288 2.53973 13.7293 2.25 13 2.25Z" fill="#2D6DF6"/>
</svg>
