<svg width="18" height="14" viewBox="0 0 18 14" fill="none" xmlns="http://www.w3.org/2000/svg">
<path fill-rule="evenodd" clip-rule="evenodd" d="M4 1C4 0.447754 4.44775 0 5 0H6C6.55225 0 7 0.447754 7 1V4C7 4.55225 6.55225 5 6 5H5C4.44775 5 4 4.55225 4 4V1ZM2 1H1C0.447754 1 0 1.44775 0 2V3C0 3.55225 0.447754 4 1 4H2V1ZM9 4H17C17.5522 4 18 3.55225 18 3V2C18 1.44775 17.5522 1 17 1H9V4ZM14 10C14 9.44775 13.5522 9 13 9H12C11.4478 9 11 9.44775 11 10V13C11 13.5522 11.4478 14 12 14H13C13.5522 14 14 13.5522 14 13V10ZM16 10H17C17.5522 10 18 10.4478 18 11V12C18 12.5522 17.5522 13 17 13H16V10ZM9 10V13H1C0.447754 13 0 12.5522 0 12V11C0 10.4478 0.447754 10 1 10H9Z" fill="#D0FF71"/>
</svg>
