<svg width="22" height="22" viewBox="0 0 22 22" fill="none" xmlns="http://www.w3.org/2000/svg">
<path fill-rule="evenodd" clip-rule="evenodd" d="M0.25 11C0.25 5.06279 5.06279 0.25 11 0.25C16.9372 0.25 21.75 5.06279 21.75 11C21.75 16.9372 16.9372 21.75 11 21.75C5.06279 21.75 0.25 16.9372 0.25 11ZM11.75 5C11.75 4.58579 11.4142 4.25 11 4.25C10.5858 4.25 10.25 4.58579 10.25 5V10.1893L8.03033 7.96967C7.73744 7.67678 7.26256 7.67678 6.96967 7.96967C6.67678 8.26256 6.67678 8.73744 6.96967 9.03033L10.4697 12.5303C10.7626 12.8232 11.2374 12.8232 11.5303 12.5303L15.0303 9.03033C15.3232 8.73744 15.3232 8.26256 15.0303 7.96967C14.7374 7.67678 14.2626 7.67678 13.9697 7.96967L11.75 10.1893V5ZM8 15.25C7.58579 15.25 7.25 15.5858 7.25 16C7.25 16.4142 7.58579 16.75 8 16.75H14C14.4142 16.75 14.75 16.4142 14.75 16C14.75 15.5858 14.4142 15.25 14 15.25H8Z" fill="#FE5A14"/>
</svg>
