<?xml version="1.0" standalone="no"?>
<svg xmlns="http://www.w3.org/2000/svg" width="151" height="151"><circle cx="58.015625" cy="10.34375" r="0.328125" fill="rgb(94, 18, 166)"/><circle cx="65.9609375" cy="10.34375" r="0.328125" fill="rgb(94, 18, 166)"/><circle cx="73.90625" cy="10.34375" r="0.328125" fill="rgb(94, 18, 166)"/><circle cx="81.8515625" cy="10.34375" r="0.328125" fill="rgb(94, 18, 166)"/><circle cx="89.796875" cy="10.34375" r="0.328125" fill="rgb(94, 18, 166)"/><circle cx="42.125" cy="18.2890625" r="0.328125" fill="rgb(94, 18, 166)"/><circle cx="50.0703125" cy="18.2890625" r="0.328125" fill="rgb(94, 18, 166)"/><circle cx="57.96875" cy="18.2421875" r="0.46875" fill="rgb(103, 36, 162)"/><circle cx="65.9140625" cy="18.2421875" r="0.46875" fill="rgb(103, 36, 162)"/><circle cx="73.81640625" cy="18.19921875" r="0.61328125" fill="rgb(111, 55, 158)"/><circle cx="81.8046875" cy="18.2421875" r="0.46875" fill="rgb(103, 36, 162)"/><circle cx="89.75" cy="18.2421875" r="0.46875" fill="rgb(103, 36, 162)"/><circle cx="97.7421875" cy="18.2890625" r="0.328125" fill="rgb(94, 18, 166)"/><circle cx="105.6875" cy="18.2890625" r="0.328125" fill="rgb(94, 18, 166)"/><circle cx="34.1796875" cy="26.234375" r="0.328125" fill="rgb(94, 18, 166)"/><circle cx="42.078125" cy="26.1875" r="0.46875" fill="rgb(103, 36, 162)"/><circle cx="49.98046875" cy="26.14453125" r="0.61328125" fill="rgb(111, 55, 158)"/><circle cx="57.87890625" cy="26.09765625" r="0.75390625" fill="rgb(120, 73, 154)"/><circle cx="65.77734375" cy="26.05078125" r="0.89453125" fill="rgb(129, 91, 150)"/><circle cx="73.72265625" cy="26.05078125" r="0.89453125" fill="rgb(129, 91, 150)"/><circle cx="81.66796875" cy="26.05078125" r="0.89453125" fill="rgb(129, 91, 150)"/><circle cx="89.66015625" cy="26.09765625" r="0.75390625" fill="rgb(120, 73, 154)"/><circle cx="97.65234375" cy="26.14453125" r="0.61328125" fill="rgb(111, 55, 158)"/><circle cx="105.640625" cy="26.1875" r="0.46875" fill="rgb(103, 36, 162)"/><circle cx="113.6328125" cy="26.234375" r="0.328125" fill="rgb(94, 18, 166)"/><circle cx="26.234375" cy="34.1796875" r="0.328125" fill="rgb(94, 18, 166)"/><circle cx="34.08984375" cy="34.08984375" r="0.61328125" fill="rgb(111, 55, 158)"/><circle cx="41.98828125" cy="34.04296875" r="0.75390625" fill="rgb(120, 73, 154)"/><circle cx="49.83203125" cy="33.94140625" r="1.03515625" fill="rgb(138, 109, 146)"/><rect x="56.5546875" y="32.71875" width="2.359375" height="2.359375" rx="0.94375" ry="0.94375" fill="rgb(147, 128, 143)"/><rect x="64.3125" y="32.53125" width="2.640625" height="2.640625" rx="0.755" ry="0.755" fill="rgb(155, 146, 139)"/><rect x="72.2578125" y="32.53125" width="2.640625" height="2.640625" rx="0.755" ry="0.755" fill="rgb(155, 146, 139)"/><rect x="80.390625" y="32.71875" width="2.359375" height="2.359375" rx="0.94375" ry="0.94375" fill="rgb(147, 128, 143)"/><rect x="88.3359375" y="32.71875" width="2.359375" height="2.359375" rx="0.94375" ry="0.94375" fill="rgb(147, 128, 143)"/><circle cx="97.55859375" cy="33.99609375" r="0.89453125" fill="rgb(129, 91, 150)"/><circle cx="105.55078125" cy="34.04296875" r="0.75390625" fill="rgb(120, 73, 154)"/><circle cx="113.5859375" cy="34.1328125" r="0.46875" fill="rgb(103, 36, 162)"/><circle cx="121.578125" cy="34.1796875" r="0.328125" fill="rgb(94, 18, 166)"/><circle cx="18.2890625" cy="42.125" r="0.328125" fill="rgb(94, 18, 166)"/><circle cx="26.1875" cy="42.078125" r="0.46875" fill="rgb(103, 36, 162)"/><circle cx="34.04296875" cy="41.98828125" r="0.75390625" fill="rgb(120, 73, 154)"/><circle cx="41.88671875" cy="41.88671875" r="1.03515625" fill="rgb(138, 109, 146)"/><rect x="48.421875" y="40.4765625" width="2.640625" height="2.640625" rx="0.755" ry="0.755" fill="rgb(155, 146, 139)"/><rect x="56.1796875" y="40.2890625" width="2.921875" height="2.921875" rx="0.56625" ry="0.56625" fill="rgb(164, 164, 135)"/><rect x="63.9375" y="40.1015625" width="3.203125" height="3.203125" rx="0.3775" ry="0.3775" fill="rgb(173, 182, 131)"/><rect x="71.8828125" y="40.1015625" width="3.203125" height="3.203125" rx="0.3775" ry="0.3775" fill="rgb(173, 182, 131)"/><rect x="79.828125" y="40.1015625" width="3.203125" height="3.203125" rx="0.3775" ry="0.3775" fill="rgb(173, 182, 131)"/><rect x="87.9609375" y="40.2890625" width="2.921875" height="2.921875" rx="0.56625" ry="0.56625" fill="rgb(164, 164, 135)"/><rect x="96.09375" y="40.4765625" width="2.640625" height="2.640625" rx="0.755" ry="0.755" fill="rgb(155, 146, 139)"/><circle cx="105.44921875" cy="41.88671875" r="1.03515625" fill="rgb(138, 109, 146)"/><circle cx="113.49609375" cy="41.98828125" r="0.75390625" fill="rgb(120, 73, 154)"/><circle cx="121.53125" cy="42.078125" r="0.46875" fill="rgb(103, 36, 162)"/><circle cx="129.5234375" cy="42.125" r="0.328125" fill="rgb(94, 18, 166)"/><circle cx="10.34375" cy="50.0703125" r="0.328125" fill="rgb(94, 18, 166)"/><circle cx="18.2421875" cy="50.0234375" r="0.46875" fill="rgb(103, 36, 162)"/><circle cx="26.14453125" cy="49.98046875" r="0.61328125" fill="rgb(111, 55, 158)"/><circle cx="33.94140625" cy="49.83203125" r="1.03515625" fill="rgb(138, 109, 146)"/><rect x="40.4765625" y="48.421875" width="2.640625" height="2.640625" rx="0.755" ry="0.755" fill="rgb(155, 146, 139)"/><rect x="48.046875" y="48.046875" width="3.203125" height="3.203125" rx="0.3775" ry="0.3775" fill="rgb(173, 182, 131)"/><rect x="55.8046875" y="47.859375" width="3.484375" height="3.484375" rx="0.18875" ry="0.18875" fill="rgb(182, 200, 127)"/><rect x="63.5625" y="47.671875" width="3.7734375" height="3.7734375" rx="0" ry="0" fill="rgb(190, 219, 123)"/><rect x="71.5078125" y="47.671875" width="3.7734375" height="3.7734375" rx="0" ry="0" fill="rgb(190, 219, 123)"/><rect x="79.453125" y="47.671875" width="3.7734375" height="3.7734375" rx="0" ry="0" fill="rgb(190, 219, 123)"/><rect x="87.5859375" y="47.859375" width="3.484375" height="3.484375" rx="0.18875" ry="0.18875" fill="rgb(182, 200, 127)"/><rect x="95.71875" y="48.046875" width="3.203125" height="3.203125" rx="0.3775" ry="0.3775" fill="rgb(173, 182, 131)"/><rect x="104.0390625" y="48.421875" width="2.640625" height="2.640625" rx="0.755" ry="0.755" fill="rgb(155, 146, 139)"/><circle cx="113.44921875" cy="49.88671875" r="0.89453125" fill="rgb(129, 91, 150)"/><circle cx="121.48828125" cy="49.98046875" r="0.61328125" fill="rgb(111, 55, 158)"/><circle cx="129.5234375" cy="50.0703125" r="0.328125" fill="rgb(94, 18, 166)"/><circle cx="10.34375" cy="58.015625" r="0.328125" fill="rgb(94, 18, 166)"/><circle cx="18.2421875" cy="57.96875" r="0.46875" fill="rgb(103, 36, 162)"/><circle cx="26.09765625" cy="57.87890625" r="0.75390625" fill="rgb(120, 73, 154)"/><rect x="32.71875" y="56.5546875" width="2.359375" height="2.359375" rx="0.94375" ry="0.94375" fill="rgb(147, 128, 143)"/><rect x="40.2890625" y="56.1796875" width="2.921875" height="2.921875" rx="0.56625" ry="0.56625" fill="rgb(164, 164, 135)"/><rect x="47.859375" y="55.8046875" width="3.484375" height="3.484375" rx="0.18875" ry="0.18875" fill="rgb(182, 200, 127)"/><rect x="55.4296875" y="55.4296875" width="4.0546875" height="4.0546875" rx="0" ry="0" fill="rgb(199, 237, 119)"/><rect x="63.375" y="55.4296875" width="4.0546875" height="4.0546875" rx="0" ry="0" fill="rgb(199, 237, 119)"/><rect x="71.1328125" y="55.2421875" width="4.3359375" height="4.3359375" rx="0" ry="0" fill="rgb(208, 255, 115)"/><rect x="79.265625" y="55.4296875" width="4.0546875" height="4.0546875" rx="0" ry="0" fill="rgb(199, 237, 119)"/><rect x="87.2109375" y="55.4296875" width="4.0546875" height="4.0546875" rx="0" ry="0" fill="rgb(199, 237, 119)"/><rect x="95.53125" y="55.8046875" width="3.484375" height="3.484375" rx="0.18875" ry="0.18875" fill="rgb(182, 200, 127)"/><rect x="103.8515625" y="56.1796875" width="2.921875" height="2.921875" rx="0.56625" ry="0.56625" fill="rgb(164, 164, 135)"/><rect x="112.171875" y="56.5546875" width="2.359375" height="2.359375" rx="0.94375" ry="0.94375" fill="rgb(147, 128, 143)"/><circle cx="121.44140625" cy="57.87890625" r="0.75390625" fill="rgb(120, 73, 154)"/><circle cx="129.4765625" cy="57.96875" r="0.46875" fill="rgb(103, 36, 162)"/><circle cx="137.46875" cy="58.015625" r="0.328125" fill="rgb(94, 18, 166)"/><circle cx="10.34375" cy="65.9609375" r="0.328125" fill="rgb(94, 18, 166)"/><circle cx="18.19921875" cy="65.87109375" r="0.61328125" fill="rgb(111, 55, 158)"/><circle cx="26.05078125" cy="65.77734375" r="0.89453125" fill="rgb(129, 91, 150)"/><rect x="32.53125" y="64.3125" width="2.640625" height="2.640625" rx="0.755" ry="0.755" fill="rgb(155, 146, 139)"/><rect x="40.1015625" y="63.9375" width="3.203125" height="3.203125" rx="0.3775" ry="0.3775" fill="rgb(173, 182, 131)"/><rect x="47.671875" y="63.5625" width="3.7734375" height="3.7734375" rx="0" ry="0" fill="rgb(190, 219, 123)"/><rect x="55.4296875" y="63.375" width="4.0546875" height="4.0546875" rx="0" ry="0" fill="rgb(199, 237, 119)"/><rect x="63.1875" y="63.1875" width="4.3359375" height="4.3359375" rx="0" ry="0" fill="rgb(208, 255, 115)"/><rect x="71.1328125" y="63.1875" width="4.3359375" height="4.3359375" rx="0" ry="0" fill="rgb(208, 255, 115)"/><rect x="79.078125" y="63.1875" width="4.3359375" height="4.3359375" rx="0" ry="0" fill="rgb(208, 255, 115)"/><rect x="87.2109375" y="63.375" width="4.0546875" height="4.0546875" rx="0" ry="0" fill="rgb(199, 237, 119)"/><rect x="95.34375" y="63.5625" width="3.7734375" height="3.7734375" rx="0" ry="0" fill="rgb(190, 219, 123)"/><rect x="103.6640625" y="63.9375" width="3.203125" height="3.203125" rx="0.3775" ry="0.3775" fill="rgb(173, 182, 131)"/><rect x="112.171875" y="64.5" width="2.359375" height="2.359375" rx="0.94375" ry="0.94375" fill="rgb(147, 128, 143)"/><circle cx="121.39453125" cy="65.77734375" r="0.89453125" fill="rgb(129, 91, 150)"/><circle cx="129.4765625" cy="65.9140625" r="0.46875" fill="rgb(103, 36, 162)"/><circle cx="137.46875" cy="65.9609375" r="0.328125" fill="rgb(94, 18, 166)"/><circle cx="10.34375" cy="73.90625" r="0.328125" fill="rgb(94, 18, 166)"/><circle cx="18.19921875" cy="73.81640625" r="0.61328125" fill="rgb(111, 55, 158)"/><circle cx="26.05078125" cy="73.72265625" r="0.89453125" fill="rgb(129, 91, 150)"/><rect x="32.53125" y="72.2578125" width="2.640625" height="2.640625" rx="0.755" ry="0.755" fill="rgb(155, 146, 139)"/><rect x="39.9140625" y="71.6953125" width="3.484375" height="3.484375" rx="0.18875" ry="0.18875" fill="rgb(182, 200, 127)"/><rect x="47.484375" y="71.3203125" width="4.0546875" height="4.0546875" rx="0" ry="0" fill="rgb(199, 237, 119)"/><rect x="55.2421875" y="71.1328125" width="4.3359375" height="4.3359375" rx="0" ry="0" fill="rgb(208, 255, 115)"/><rect x="63.1875" y="71.1328125" width="4.3359375" height="4.3359375" rx="0" ry="0" fill="rgb(208, 255, 115)"/><rect x="71.1328125" y="71.1328125" width="4.3359375" height="4.3359375" rx="0" ry="0" fill="rgb(208, 255, 115)"/><rect x="79.078125" y="71.1328125" width="4.3359375" height="4.3359375" rx="0" ry="0" fill="rgb(208, 255, 115)"/><rect x="87.0234375" y="71.1328125" width="4.3359375" height="4.3359375" rx="0" ry="0" fill="rgb(208, 255, 115)"/><rect x="95.34375" y="71.5078125" width="3.7734375" height="3.7734375" rx="0" ry="0" fill="rgb(190, 219, 123)"/><rect x="103.6640625" y="71.8828125" width="3.203125" height="3.203125" rx="0.3775" ry="0.3775" fill="rgb(173, 182, 131)"/><rect x="111.984375" y="72.2578125" width="2.640625" height="2.640625" rx="0.755" ry="0.755" fill="rgb(155, 146, 139)"/><circle cx="121.39453125" cy="73.72265625" r="0.89453125" fill="rgb(129, 91, 150)"/><circle cx="129.43359375" cy="73.81640625" r="0.61328125" fill="rgb(111, 55, 158)"/><circle cx="137.46875" cy="73.90625" r="0.328125" fill="rgb(94, 18, 166)"/><circle cx="10.34375" cy="81.8515625" r="0.328125" fill="rgb(94, 18, 166)"/><circle cx="18.19921875" cy="81.76171875" r="0.61328125" fill="rgb(111, 55, 158)"/><circle cx="26.05078125" cy="81.66796875" r="0.89453125" fill="rgb(129, 91, 150)"/><rect x="32.53125" y="80.203125" width="2.640625" height="2.640625" rx="0.755" ry="0.755" fill="rgb(155, 146, 139)"/><rect x="40.1015625" y="79.828125" width="3.203125" height="3.203125" rx="0.3775" ry="0.3775" fill="rgb(173, 182, 131)"/><rect x="47.671875" y="79.453125" width="3.7734375" height="3.7734375" rx="0" ry="0" fill="rgb(190, 219, 123)"/><rect x="55.4296875" y="79.265625" width="4.0546875" height="4.0546875" rx="0" ry="0" fill="rgb(199, 237, 119)"/><rect x="63.1875" y="79.078125" width="4.3359375" height="4.3359375" rx="0" ry="0" fill="rgb(208, 255, 115)"/><rect x="71.1328125" y="79.078125" width="4.3359375" height="4.3359375" rx="0" ry="0" fill="rgb(208, 255, 115)"/><rect x="79.078125" y="79.078125" width="4.3359375" height="4.3359375" rx="0" ry="0" fill="rgb(208, 255, 115)"/><rect x="87.2109375" y="79.265625" width="4.0546875" height="4.0546875" rx="0" ry="0" fill="rgb(199, 237, 119)"/><rect x="95.34375" y="79.453125" width="3.7734375" height="3.7734375" rx="0" ry="0" fill="rgb(190, 219, 123)"/><rect x="103.6640625" y="79.828125" width="3.203125" height="3.203125" rx="0.3775" ry="0.3775" fill="rgb(173, 182, 131)"/><rect x="111.984375" y="80.203125" width="2.640625" height="2.640625" rx="0.755" ry="0.755" fill="rgb(155, 146, 139)"/><circle cx="121.39453125" cy="81.66796875" r="0.89453125" fill="rgb(129, 91, 150)"/><circle cx="129.4765625" cy="81.8046875" r="0.46875" fill="rgb(103, 36, 162)"/><circle cx="137.46875" cy="81.8515625" r="0.328125" fill="rgb(94, 18, 166)"/><circle cx="10.34375" cy="89.796875" r="0.328125" fill="rgb(94, 18, 166)"/><circle cx="18.2421875" cy="89.75" r="0.46875" fill="rgb(103, 36, 162)"/><circle cx="26.09765625" cy="89.66015625" r="0.75390625" fill="rgb(120, 73, 154)"/><rect x="32.71875" y="88.3359375" width="2.359375" height="2.359375" rx="0.94375" ry="0.94375" fill="rgb(147, 128, 143)"/><rect x="40.2890625" y="87.9609375" width="2.921875" height="2.921875" rx="0.56625" ry="0.56625" fill="rgb(164, 164, 135)"/><rect x="47.671875" y="87.3984375" width="3.7734375" height="3.7734375" rx="0" ry="0" fill="rgb(190, 219, 123)"/><rect x="55.4296875" y="87.2109375" width="4.0546875" height="4.0546875" rx="0" ry="0" fill="rgb(199, 237, 119)"/><rect x="63.375" y="87.2109375" width="4.0546875" height="4.0546875" rx="0" ry="0" fill="rgb(199, 237, 119)"/><rect x="71.1328125" y="87.0234375" width="4.3359375" height="4.3359375" rx="0" ry="0" fill="rgb(208, 255, 115)"/><rect x="79.265625" y="87.2109375" width="4.0546875" height="4.0546875" rx="0" ry="0" fill="rgb(199, 237, 119)"/><rect x="87.2109375" y="87.2109375" width="4.0546875" height="4.0546875" rx="0" ry="0" fill="rgb(199, 237, 119)"/><rect x="95.53125" y="87.5859375" width="3.484375" height="3.484375" rx="0.18875" ry="0.18875" fill="rgb(182, 200, 127)"/><rect x="103.8515625" y="87.9609375" width="2.921875" height="2.921875" rx="0.56625" ry="0.56625" fill="rgb(164, 164, 135)"/><rect x="112.171875" y="88.3359375" width="2.359375" height="2.359375" rx="0.94375" ry="0.94375" fill="rgb(147, 128, 143)"/><circle cx="121.44140625" cy="89.66015625" r="0.75390625" fill="rgb(120, 73, 154)"/><circle cx="129.4765625" cy="89.75" r="0.46875" fill="rgb(103, 36, 162)"/><circle cx="137.46875" cy="89.796875" r="0.328125" fill="rgb(94, 18, 166)"/><circle cx="10.34375" cy="97.7421875" r="0.328125" fill="rgb(94, 18, 166)"/><circle cx="18.2421875" cy="97.6953125" r="0.46875" fill="rgb(103, 36, 162)"/><circle cx="26.09765625" cy="97.60546875" r="0.75390625" fill="rgb(120, 73, 154)"/><circle cx="33.94140625" cy="97.50390625" r="1.03515625" fill="rgb(138, 109, 146)"/><rect x="40.4765625" y="96.09375" width="2.640625" height="2.640625" rx="0.755" ry="0.755" fill="rgb(155, 146, 139)"/><rect x="48.046875" y="95.71875" width="3.203125" height="3.203125" rx="0.3775" ry="0.3775" fill="rgb(173, 182, 131)"/><rect x="55.6171875" y="95.34375" width="3.7734375" height="3.7734375" rx="0" ry="0" fill="rgb(190, 219, 123)"/><rect x="63.5625" y="95.34375" width="3.7734375" height="3.7734375" rx="0" ry="0" fill="rgb(190, 219, 123)"/><rect x="71.3203125" y="95.15625" width="4.0546875" height="4.0546875" rx="0" ry="0" fill="rgb(199, 237, 119)"/><rect x="79.453125" y="95.34375" width="3.7734375" height="3.7734375" rx="0" ry="0" fill="rgb(190, 219, 123)"/><rect x="87.5859375" y="95.53125" width="3.484375" height="3.484375" rx="0.18875" ry="0.18875" fill="rgb(182, 200, 127)"/><rect x="95.71875" y="95.71875" width="3.203125" height="3.203125" rx="0.3775" ry="0.3775" fill="rgb(173, 182, 131)"/><rect x="104.0390625" y="96.09375" width="2.640625" height="2.640625" rx="0.755" ry="0.755" fill="rgb(155, 146, 139)"/><circle cx="113.39453125" cy="97.50390625" r="1.03515625" fill="rgb(138, 109, 146)"/><circle cx="121.48828125" cy="97.65234375" r="0.61328125" fill="rgb(111, 55, 158)"/><circle cx="129.5234375" cy="97.7421875" r="0.328125" fill="rgb(94, 18, 166)"/><circle cx="18.2890625" cy="105.6875" r="0.328125" fill="rgb(94, 18, 166)"/><circle cx="26.1875" cy="105.640625" r="0.46875" fill="rgb(103, 36, 162)"/><circle cx="34.04296875" cy="105.55078125" r="0.75390625" fill="rgb(120, 73, 154)"/><circle cx="41.88671875" cy="105.44921875" r="1.03515625" fill="rgb(138, 109, 146)"/><rect x="48.421875" y="104.0390625" width="2.640625" height="2.640625" rx="0.755" ry="0.755" fill="rgb(155, 146, 139)"/><rect x="56.1796875" y="103.8515625" width="2.921875" height="2.921875" rx="0.56625" ry="0.56625" fill="rgb(164, 164, 135)"/><rect x="63.9375" y="103.6640625" width="3.203125" height="3.203125" rx="0.3775" ry="0.3775" fill="rgb(173, 182, 131)"/><rect x="71.6953125" y="103.4765625" width="3.484375" height="3.484375" rx="0.18875" ry="0.18875" fill="rgb(182, 200, 127)"/><rect x="79.828125" y="103.6640625" width="3.203125" height="3.203125" rx="0.3775" ry="0.3775" fill="rgb(173, 182, 131)"/><rect x="87.9609375" y="103.8515625" width="2.921875" height="2.921875" rx="0.56625" ry="0.56625" fill="rgb(164, 164, 135)"/><rect x="96.09375" y="104.0390625" width="2.640625" height="2.640625" rx="0.755" ry="0.755" fill="rgb(155, 146, 139)"/><circle cx="105.44921875" cy="105.44921875" r="1.03515625" fill="rgb(138, 109, 146)"/><circle cx="113.49609375" cy="105.55078125" r="0.75390625" fill="rgb(120, 73, 154)"/><circle cx="121.53125" cy="105.640625" r="0.46875" fill="rgb(103, 36, 162)"/><circle cx="129.5234375" cy="105.6875" r="0.328125" fill="rgb(94, 18, 166)"/><circle cx="26.234375" cy="113.6328125" r="0.328125" fill="rgb(94, 18, 166)"/><circle cx="34.08984375" cy="113.54296875" r="0.61328125" fill="rgb(111, 55, 158)"/><circle cx="41.98828125" cy="113.49609375" r="0.75390625" fill="rgb(120, 73, 154)"/><circle cx="49.83203125" cy="113.39453125" r="1.03515625" fill="rgb(138, 109, 146)"/><rect x="56.5546875" y="112.171875" width="2.359375" height="2.359375" rx="0.94375" ry="0.94375" fill="rgb(147, 128, 143)"/><rect x="64.3125" y="111.984375" width="2.640625" height="2.640625" rx="0.755" ry="0.755" fill="rgb(155, 146, 139)"/><rect x="72.2578125" y="111.984375" width="2.640625" height="2.640625" rx="0.755" ry="0.755" fill="rgb(155, 146, 139)"/><rect x="80.203125" y="111.984375" width="2.640625" height="2.640625" rx="0.755" ry="0.755" fill="rgb(155, 146, 139)"/><rect x="88.3359375" y="112.171875" width="2.359375" height="2.359375" rx="0.94375" ry="0.94375" fill="rgb(147, 128, 143)"/><circle cx="97.50390625" cy="113.39453125" r="1.03515625" fill="rgb(138, 109, 146)"/><circle cx="105.55078125" cy="113.49609375" r="0.75390625" fill="rgb(120, 73, 154)"/><circle cx="113.54296875" cy="113.54296875" r="0.61328125" fill="rgb(111, 55, 158)"/><circle cx="121.578125" cy="113.6328125" r="0.328125" fill="rgb(94, 18, 166)"/><circle cx="26.234375" cy="121.578125" r="0.328125" fill="rgb(94, 18, 166)"/><circle cx="34.1796875" cy="121.578125" r="0.328125" fill="rgb(94, 18, 166)"/><circle cx="42.078125" cy="121.53125" r="0.46875" fill="rgb(103, 36, 162)"/><circle cx="49.93359375" cy="121.44140625" r="0.75390625" fill="rgb(120, 73, 154)"/><circle cx="57.83203125" cy="121.39453125" r="0.89453125" fill="rgb(129, 91, 150)"/><circle cx="65.77734375" cy="121.39453125" r="0.89453125" fill="rgb(129, 91, 150)"/><circle cx="73.72265625" cy="121.39453125" r="0.89453125" fill="rgb(129, 91, 150)"/><circle cx="81.66796875" cy="121.39453125" r="0.89453125" fill="rgb(129, 91, 150)"/><circle cx="89.66015625" cy="121.44140625" r="0.75390625" fill="rgb(120, 73, 154)"/><circle cx="97.65234375" cy="121.48828125" r="0.61328125" fill="rgb(111, 55, 158)"/><circle cx="105.640625" cy="121.53125" r="0.46875" fill="rgb(103, 36, 162)"/><circle cx="113.6328125" cy="121.578125" r="0.328125" fill="rgb(94, 18, 166)"/><circle cx="42.125" cy="129.5234375" r="0.328125" fill="rgb(94, 18, 166)"/><circle cx="50.0234375" cy="129.4765625" r="0.46875" fill="rgb(103, 36, 162)"/><circle cx="57.96875" cy="129.4765625" r="0.46875" fill="rgb(103, 36, 162)"/><circle cx="65.87109375" cy="129.43359375" r="0.61328125" fill="rgb(111, 55, 158)"/><circle cx="73.81640625" cy="129.43359375" r="0.61328125" fill="rgb(111, 55, 158)"/><circle cx="81.76171875" cy="129.43359375" r="0.61328125" fill="rgb(111, 55, 158)"/><circle cx="89.75" cy="129.4765625" r="0.46875" fill="rgb(103, 36, 162)"/><circle cx="97.6953125" cy="129.4765625" r="0.46875" fill="rgb(103, 36, 162)"/><circle cx="105.6875" cy="129.5234375" r="0.328125" fill="rgb(94, 18, 166)"/><circle cx="50.0703125" cy="137.46875" r="0.328125" fill="rgb(94, 18, 166)"/><circle cx="58.015625" cy="137.46875" r="0.328125" fill="rgb(94, 18, 166)"/><circle cx="65.9609375" cy="137.46875" r="0.328125" fill="rgb(94, 18, 166)"/><circle cx="73.90625" cy="137.46875" r="0.328125" fill="rgb(94, 18, 166)"/><circle cx="81.8515625" cy="137.46875" r="0.328125" fill="rgb(94, 18, 166)"/><circle cx="89.796875" cy="137.46875" r="0.328125" fill="rgb(94, 18, 166)"/><circle cx="97.7421875" cy="137.46875" r="0.328125" fill="rgb(94, 18, 166)"/></svg>