<svg width="464" height="214" viewBox="0 0 464 214" fill="none" xmlns="http://www.w3.org/2000/svg">
<path fill-rule="evenodd" clip-rule="evenodd" d="M277.452 0.535386C276.348 0.535386 275.452 1.43082 275.452 2.53539V14.5871C275.452 15.6916 276.348 16.5871 277.452 16.5871H348.778C349.883 16.5871 350.778 15.6916 350.778 14.5871V2.53539C350.778 1.43082 349.883 0.535386 348.778 0.535386H277.452ZM259.862 26.2823C259.862 25.1778 260.758 24.2823 261.862 24.2823H411.112C412.217 24.2823 413.112 25.1778 413.112 26.2823V38.334C413.112 39.4386 412.217 40.334 411.112 40.334H261.862C260.758 40.334 259.862 39.4386 259.862 38.334V26.2823ZM243.686 48.0291C242.581 48.0291 241.686 48.9245 241.686 50.0291V62.0808C241.686 63.1853 242.581 64.0808 243.686 64.0808H392.935C394.04 64.0808 394.935 63.1853 394.935 62.0808V50.0291C394.935 48.9245 394.04 48.0291 392.935 48.0291H243.686ZM228.098 71.7761C226.993 71.7761 226.098 72.6715 226.098 73.7761V85.8277C226.098 86.9323 226.993 87.8277 228.098 87.8277H377.348C378.452 87.8277 379.348 86.9323 379.348 85.8277V73.7761C379.348 72.6715 378.452 71.7761 377.348 71.7761H228.098ZM2 93.3141C0.895431 93.3141 0 94.2095 0 95.3141V107.366C0 108.47 0.895428 109.366 2 109.366H234.368C235.473 109.366 236.368 108.47 236.368 107.366V95.3141C236.368 94.2095 235.473 93.3141 234.368 93.3141H2ZM226.098 116.852C226.098 115.748 226.993 114.852 228.098 114.852H377.348C378.452 114.852 379.348 115.748 379.348 116.852V128.904C379.348 130.008 378.452 130.904 377.348 130.904H228.098C226.993 130.904 226.098 130.008 226.098 128.904V116.852ZM238.495 141.588C237.391 141.588 236.495 142.483 236.495 143.588V155.639C236.495 156.744 237.391 157.639 238.495 157.639H387.745C388.85 157.639 389.745 156.744 389.745 155.639V143.588C389.745 142.483 388.85 141.588 387.745 141.588H238.495ZM241.686 173.196C241.686 172.092 242.581 171.196 243.686 171.196H273.453C274.557 171.196 275.453 172.092 275.453 173.196V185.248C275.453 186.353 274.557 187.248 273.453 187.248H243.686C242.581 187.248 241.686 186.353 241.686 185.248V173.196Z" fill="#22C55E"/>
<rect x="241.693" y="197.95" width="33.7669" height="16.0517" rx="2" fill="#D92D21"/>
<rect x="430.152" y="51.2837" width="33.7669" height="16.0517" rx="2" fill="#D92D21"/>
</svg>
